<svg xmlns="http://www.w3.org/2000/svg" xmlns:xlink="http://www.w3.org/1999/xlink" viewBox="0 0 48 48" width="480px" height="480px"><defs><linearGradient id="ElLbt-90Mv_0e7I9IVwl1a" x1="24" x2="24" y1="-1.59" y2="35.31" gradientUnits="userSpaceOnUse"><stop offset=".09" stop-color="#fef4d3"/><stop offset=".53" stop-color="#ffd7b2"/><stop offset="1" stop-color="#feb1bf"/></linearGradient><linearGradient id="ElLbt-90Mv_0e7I9IVwl1b" x1="24" x2="24" y1="-.75" y2="35.95" gradientUnits="userSpaceOnUse"><stop offset=".09" stop-color="#fef2c9"/><stop offset=".53" stop-color="#ffcea1"/><stop offset="1" stop-color="#fea0b1"/></linearGradient><linearGradient id="ElLbt-90Mv_0e7I9IVwl1c" x1="24" x2="24" y1=".08" y2="36.53" gradientUnits="userSpaceOnUse"><stop offset=".09" stop-color="#fdefc0"/><stop offset=".53" stop-color="#ffc590"/><stop offset="1" stop-color="#fe8fa3"/></linearGradient><linearGradient id="ElLbt-90Mv_0e7I9IVwl1d" x1="24" x2="24" y1=".9" y2="37.04" gradientUnits="userSpaceOnUse"><stop offset=".09" stop-color="#fdedb6"/><stop offset=".53" stop-color="#ffbd7f"/><stop offset="1" stop-color="#fd7d95"/></linearGradient><linearGradient id="ElLbt-90Mv_0e7I9IVwl1e" x1="24" x2="24" y1="1.72" y2="37.5" gradientUnits="userSpaceOnUse"><stop offset=".09" stop-color="#fdebac"/><stop offset=".53" stop-color="#ffb46e"/><stop offset="1" stop-color="#fd6c87"/></linearGradient><linearGradient id="ElLbt-90Mv_0e7I9IVwl1f" x1="24" x2="24" y1="2.53" y2="37.89" gradientUnits="userSpaceOnUse"><stop offset=".09" stop-color="#fce8a3"/><stop offset=".53" stop-color="#ffab5c"/><stop offset="1" stop-color="#fd5b78"/></linearGradient><linearGradient id="ElLbt-90Mv_0e7I9IVwl1g" x1="24" x2="24" y1="3.33" y2="38.21" gradientUnits="userSpaceOnUse"><stop offset=".09" stop-color="#fce699"/><stop offset=".53" stop-color="#ffa24b"/><stop offset="1" stop-color="#fd4a6a"/></linearGradient><linearGradient id="ElLbt-90Mv_0e7I9IVwl1h" x1="24" x2="24" y1="4.11" y2="38.48" gradientUnits="userSpaceOnUse"><stop offset=".09" stop-color="#fce48f"/><stop offset=".53" stop-color="#ff9a3a"/><stop offset="1" stop-color="#fc385c"/></linearGradient><linearGradient id="ElLbt-90Mv_0e7I9IVwl1i" x1="24" x2="24" y1="4.9" y2="38.68" gradientUnits="userSpaceOnUse"><stop offset=".09" stop-color="#fbe186"/><stop offset=".53" stop-color="#ff9129"/><stop offset="1" stop-color="#fc274e"/></linearGradient><linearGradient id="ElLbt-90Mv_0e7I9IVwl1j" x1="24" x2="24" y1="5.67" y2="38.81" gradientUnits="userSpaceOnUse"><stop offset=".09" stop-color="#fbdf7c"/><stop offset=".53" stop-color="#ff8818"/><stop offset="1" stop-color="#fc1640"/></linearGradient><linearGradient id="ElLbt-90Mv_0e7I9IVwl1k" x1="24" x2="24" y1="9.7" y2="49.59" xlink:href="#ElLbt-90Mv_0e7I9IVwl1a"/><linearGradient id="ElLbt-90Mv_0e7I9IVwl1l" x1="24" x2="24" y1="10.27" y2="49.82" xlink:href="#ElLbt-90Mv_0e7I9IVwl1b"/><linearGradient id="ElLbt-90Mv_0e7I9IVwl1m" x1="24" x2="24" y1="10.82" y2="50" xlink:href="#ElLbt-90Mv_0e7I9IVwl1c"/><linearGradient id="ElLbt-90Mv_0e7I9IVwl1n" x1="24" x2="24" y1="11.37" y2="50.13" xlink:href="#ElLbt-90Mv_0e7I9IVwl1d"/><linearGradient id="ElLbt-90Mv_0e7I9IVwl1o" x1="24" x2="24" y1="11.91" y2="50.2" xlink:href="#ElLbt-90Mv_0e7I9IVwl1e"/><linearGradient id="ElLbt-90Mv_0e7I9IVwl1p" x1="24" x2="24" y1="12.45" y2="50.22" xlink:href="#ElLbt-90Mv_0e7I9IVwl1f"/><linearGradient id="ElLbt-90Mv_0e7I9IVwl1q" x1="24" x2="24" y1="12.98" y2="50.18" xlink:href="#ElLbt-90Mv_0e7I9IVwl1g"/><linearGradient id="ElLbt-90Mv_0e7I9IVwl1r" x1="24" x2="24" y1="13.5" y2="50.08" xlink:href="#ElLbt-90Mv_0e7I9IVwl1h"/><linearGradient id="ElLbt-90Mv_0e7I9IVwl1s" x1="24" x2="24" y1="14.02" y2="49.94" xlink:href="#ElLbt-90Mv_0e7I9IVwl1i"/><linearGradient id="ElLbt-90Mv_0e7I9IVwl1t" x2="24" y1="14.53" y2="49.74" xlink:href="#ElLbt-90Mv_0e7I9IVwl1j"/></defs><path fill="url(#ElLbt-90Mv_0e7I9IVwl1a)" d="m19.45,11.07l-2.18-2.88c-.57-.75-1.45-1.19-2.39-1.19h-7.88c-1.66,0-3,1.34-3,3v24c0,1.66,1.34,3,3,3h34c1.66,0,3-1.34,3-3V15c0-1.66-1.34-3-3-3h-19.67c-.74,0-1.43-.34-1.87-.93Z"/><path fill="url(#ElLbt-90Mv_0e7I9IVwl1b)" d="m4.44,33.82V10.23c0-1.54,1.25-2.78,2.78-2.78h7.54c.87,0,1.69.41,2.22,1.1l2.26,2.99c.44.57,1.12.91,1.84.91h19.74c1.51,0,2.73,1.22,2.73,2.73v18.64c0,1.51-1.22,2.73-2.73,2.73H7.18c-1.51,0-2.73-1.22-2.73-2.73Z"/><path fill="url(#ElLbt-90Mv_0e7I9IVwl1c)" d="m4.89,33.64V10.45c0-1.42,1.15-2.56,2.56-2.56h7.2c.8,0,1.56.38,2.04,1.02l2.34,3.09c.43.56,1.09.89,1.8.89h19.8c1.36,0,2.47,1.11,2.47,2.47v18.28c0,1.36-1.11,2.47-2.47,2.47H7.36c-1.36,0-2.47-1.11-2.47-2.47Z"/><path fill="url(#ElLbt-90Mv_0e7I9IVwl1d)" d="m5.33,33.46V10.68c0-1.3,1.05-2.35,2.35-2.35h6.86c.73,0,1.43.34,1.87.93l2.42,3.2c.42.55,1.07.88,1.76.88h19.87c1.22,0,2.2.99,2.2,2.2v17.93c0,1.22-.99,2.2-2.2,2.2H7.54c-1.22,0-2.2-.99-2.2-2.2Z"/><path fill="url(#ElLbt-90Mv_0e7I9IVwl1e)" d="m5.78,33.28V10.91c0-1.18.95-2.13,2.13-2.13h6.52c.67,0,1.29.31,1.7.84l2.5,3.3c.41.54,1.05.86,1.72.86h19.93c1.07,0,1.94.87,1.94,1.94v17.57c0,1.07-.87,1.94-1.94,1.94H7.72c-1.07,0-1.94-.87-1.94-1.94Z"/><path fill="url(#ElLbt-90Mv_0e7I9IVwl1f)" d="m6.22,33.1V11.13c0-1.06.86-1.91,1.91-1.91h6.18c.6,0,1.16.28,1.52.76l2.58,3.41c.4.53,1.02.84,1.69.84h20c.92,0,1.67.75,1.67,1.67v17.21c0,.92-.75,1.67-1.67,1.67H7.9c-.92,0-1.67-.75-1.67-1.67Z"/><path fill="url(#ElLbt-90Mv_0e7I9IVwl1g)" d="m6.67,32.93V11.36c0-.94.76-1.69,1.69-1.69h5.84c.53,0,1.03.25,1.35.67l2.66,3.51c.39.52,1,.82,1.65.82h20.07c.78,0,1.41.63,1.41,1.41v16.85c0,.78-.63,1.41-1.41,1.41H8.07c-.78,0-1.41-.63-1.41-1.41Z"/><path fill="url(#ElLbt-90Mv_0e7I9IVwl1h)" d="m7.11,32.75V11.59c0-.82.66-1.48,1.48-1.48h5.5c.46,0,.9.22,1.18.58l2.74,3.62c.38.5.98.8,1.61.8h20.13c.63,0,1.14.51,1.14,1.14v16.49c0,.63-.51,1.14-1.14,1.14H8.25c-.63,0-1.14-.51-1.14-1.14Z"/><path fill="url(#ElLbt-90Mv_0e7I9IVwl1i)" d="m7.56,32.57V11.81c0-.7.56-1.26,1.26-1.26h5.16c.39,0,.77.18,1,.5l2.82,3.72c.37.49.95.78,1.57.78h20.2c.48,0,.88.39.88.88v16.14c0,.48-.39.88-.88.88H8.43c-.48,0-.88-.39-.88-.88Z"/><path fill="url(#ElLbt-90Mv_0e7I9IVwl1j)" d="m8,32.39V12.04c0-.58.47-1.04,1.04-1.04h4.82c.33,0,.63.15.83.41l2.9,3.83c.36.48.93.76,1.53.76h20.26c.34,0,.61.27.61.61v15.78c0,.34-.27.61-.61.61H8.61c-.34,0-.61-.27-.61-.61Z"/><g><path fill="url(#ElLbt-90Mv_0e7I9IVwl1k)" d="m28.74,13.81l1.99-2.62c.57-.75,1.45-1.19,2.39-1.19h7.88c1.66,0,3,1.34,3,3v25c0,1.65-1.35,3-3,3H7c-1.66,0-3-1.34-3-3v-20c0-1.66,1.34-3,3-3h19.35c.94,0,1.82-.44,2.39-1.19Z"/><path fill="url(#ElLbt-90Mv_0e7I9IVwl1l)" d="m28.93,14.3l2.09-2.76c.52-.69,1.34-1.09,2.2-1.09h7.57c1.52,0,2.76,1.24,2.76,2.76v24.54c0,1.55-1.26,2.81-2.81,2.81H7.26c-1.55,0-2.81-1.26-2.81-2.81v-19.54c0-1.52,1.23-2.75,2.75-2.75h19.43c.9,0,1.76-.42,2.3-1.14Z"/><path fill="url(#ElLbt-90Mv_0e7I9IVwl1m)" d="m29.12,14.79l2.2-2.9c.48-.63,1.22-1,2.01-1h7.27c1.39,0,2.52,1.13,2.52,2.52v24.08c0,1.44-1.18,2.62-2.62,2.62H7.51c-1.45,0-2.62-1.17-2.62-2.62v-19.09c0-1.39,1.12-2.51,2.51-2.51h19.51c.87,0,1.69-.41,2.21-1.1Z"/><path fill="url(#ElLbt-90Mv_0e7I9IVwl1n)" d="m29.3,15.28l2.31-3.04c.43-.57,1.1-.9,1.82-.9h6.96c1.26,0,2.28,1.02,2.28,2.28v23.62c0,1.34-1.09,2.44-2.44,2.44H7.77c-1.34,0-2.44-1.09-2.44-2.44v-18.63c0-1.25,1.01-2.26,2.26-2.26h19.58c.83,0,1.62-.39,2.12-1.06Z"/><path fill="url(#ElLbt-90Mv_0e7I9IVwl1o)" d="m29.49,15.77l2.41-3.18c.39-.51.99-.81,1.63-.81h6.65c1.13,0,2.04.91,2.04,2.04v23.16c0,1.24-1.01,2.25-2.25,2.25H8.02c-1.24,0-2.25-1.01-2.25-2.25v-18.18c0-1.12.9-2.02,2.02-2.02h19.66c.8,0,1.55-.37,2.04-1.01Z"/><path fill="url(#ElLbt-90Mv_0e7I9IVwl1p)" d="m29.68,16.25l2.52-3.32c.34-.45.87-.71,1.44-.71h6.35c.99,0,1.8.81,1.8,1.8v22.7c0,1.13-.92,2.06-2.06,2.06H8.28c-1.14,0-2.06-.92-2.06-2.06v-17.72c0-.98.79-1.77,1.77-1.77h19.74c.76,0,1.48-.36,1.95-.97Z"/><path fill="url(#ElLbt-90Mv_0e7I9IVwl1q)" d="m29.87,16.74l2.62-3.46c.3-.39.76-.62,1.24-.62h6.04c.86,0,1.56.7,1.56,1.56v22.23c0,1.03-.84,1.87-1.87,1.87H8.54c-1.03,0-1.87-.84-1.87-1.87v-17.27c0-.84.68-1.53,1.53-1.53h19.81c.73,0,1.42-.34,1.86-.92Z"/><path fill="url(#ElLbt-90Mv_0e7I9IVwl1r)" d="m30.05,17.23l2.73-3.6c.25-.33.64-.52,1.05-.52h5.73c.73,0,1.32.59,1.32,1.32v21.77c0,.93-.75,1.68-1.68,1.68H8.79c-.93,0-1.68-.75-1.68-1.68v-16.81c0-.71.58-1.28,1.28-1.28h19.89c.69,0,1.35-.33,1.77-.88Z"/><path fill="url(#ElLbt-90Mv_0e7I9IVwl1s)" d="m30.24,17.72l2.83-3.74c.2-.27.52-.43.86-.43h5.43c.6,0,1.08.48,1.08,1.08v21.31c0,.82-.67,1.49-1.49,1.49H9.05c-.83,0-1.49-.67-1.49-1.49v-16.36c0-.57.47-1.04,1.04-1.04h19.97c.66,0,1.28-.31,1.68-.83Z"/><path fill="url(#ElLbt-90Mv_0e7I9IVwl1t)" d="m8,35.69v-15.9c0-.44.36-.79.79-.79h20.04c.63,0,1.21-.29,1.59-.79l2.94-3.88c.16-.21.41-.33.67-.33h5.12c.47,0,.84.38.84.84v20.85c0,.72-.58,1.31-1.31,1.31H9.31c-.72,0-1.31-.58-1.31-1.31Z"/></g></svg>